HIERARCHY
ROOT Hips
{
	OFFSET 0.000000 97.167313 0.000000
	CHANNELS 6 Xposition Yposition Zposition Xrotation Yrotation Zrotation
	JOINT Spine
	{
		OFFSET 0.000000 13.784798 0.064400
		CHANNELS 3 Xrotation Yrotation Zrotation
		JOINT Spine1
		{
			OFFSET 0.000000 12.037903 0.404700
			CHANNELS 3 Xrotation Yrotation Zrotation
			JOINT Spine2
			{
				OFFSET 0.000000 17.795601 0.420200
				CHANNELS 3 Xrotation Yrotation Zrotation
				JOINT Neck
				{
					OFFSET 0.000000 39.131302 11.954600
					CHANNELS 3 Xrotation Yrotation Zrotation
					JOINT Head
					{
						OFFSET 0.000000 14.456192 15.627699
						CHANNELS 3 Xrotation Yrotation Zrotation
						JOINT HeadTop_End
						{
							OFFSET 0.000000 15.703506 7.603401
							CHANNELS 3 Xrotation Yrotation Zrotation
							End Site
							{
								OFFSET 0.000000 17.447403 0.000000
							}
						}
					}
				}
				JOINT LeftShoulder
				{
					OFFSET 17.399500 24.608795 1.168800
					CHANNELS 3 Xrotation Yrotation Zrotation
					JOINT LeftArm
					{
						OFFSET 18.980635 5.765305 1.818600
						CHANNELS 3 Xrotation Yrotation Zrotation
						JOINT LeftForeArm
						{
							OFFSET 49.290169 0.000000 0.000000
							CHANNELS 3 Xrotation Yrotation Zrotation
							JOINT LeftHand
							{
								OFFSET 31.562012 0.000000 0.000000
								CHANNELS 3 Xrotation Yrotation Zrotation
								JOINT LeftHandThumb1
								{
									OFFSET 6.133995 -4.388519 7.076070
									CHANNELS 3 Xrotation Yrotation Zrotation
									JOINT LeftHandThumb2
									{
										OFFSET 6.037666 -3.485840 3.485847
										CHANNELS 3 Xrotation Yrotation Zrotation
										JOINT LeftHandThumb3
										{
											OFFSET 6.496506 -3.750763 3.750761
											CHANNELS 3 Xrotation Yrotation Zrotation
											JOINT LeftHandThumb4
											{
												OFFSET 5.616882 -3.242905 3.242910
												CHANNELS 3 Xrotation Yrotation Zrotation
												End Site
												{
													OFFSET -1.254608 7.132141 0.375429
												}
											}
										}
									}
								}
								JOINT LeftHandPinky1
								{
									OFFSET 18.920792 -0.453171 -11.426712
									CHANNELS 3 Xrotation Yrotation Zrotation
									JOINT LeftHandPinky2
									{
										OFFSET 4.919586 0.000000 0.000000
										CHANNELS 3 Xrotation Yrotation Zrotation
										JOINT LeftHandPinky3
										{
											OFFSET 5.233047 0.000000 0.000000
											CHANNELS 3 Xrotation Yrotation Zrotation
											JOINT LeftHandPinky4
											{
												OFFSET 5.571716 0.000000 0.000000
												CHANNELS 3 Xrotation Yrotation Zrotation
												End Site
												{
													OFFSET -3.459808 4.342407 -0.466164
												}
											}
										}
									}
								}
								JOINT LeftHandRing1
								{
									OFFSET 22.726120 -0.094986 -6.500475
									CHANNELS 3 Xrotation Yrotation Zrotation
									JOINT LeftHandRing2
									{
										OFFSET 6.408615 0.000000 0.000000
										CHANNELS 3 Xrotation Yrotation Zrotation
										JOINT LeftHandRing3
										{
											OFFSET 6.150223 0.000000 0.000000
											CHANNELS 3 Xrotation Yrotation Zrotation
											JOINT LeftHandRing4
											{
												OFFSET 6.145386 0.000000 0.000000
												CHANNELS 3 Xrotation Yrotation Zrotation
												End Site
												{
													OFFSET -3.671402 4.923981 -0.202372
												}
											}
										}
									}
								}
								JOINT LeftHandMiddle1
								{
									OFFSET 23.373947 0.000000 0.000001
									CHANNELS 3 Xrotation Yrotation Zrotation
									JOINT LeftHandMiddle2
									{
										OFFSET 6.996567 0.000000 0.000000
										CHANNELS 3 Xrotation Yrotation Zrotation
										JOINT LeftHandMiddle3
										{
											OFFSET 7.015945 0.000000 0.000000
											CHANNELS 3 Xrotation Yrotation Zrotation
											JOINT LeftHandMiddle4
											{
												OFFSET 7.721573 0.000000 0.000000
												CHANNELS 3 Xrotation Yrotation Zrotation
												End Site
												{
													OFFSET -4.651108 6.158463 0.251582
												}
											}
										}
									}
								}
								JOINT LeftHandIndex1
								{
									OFFSET 21.310577 -0.490082 6.209344
									CHANNELS 3 Xrotation Yrotation Zrotation
									JOINT LeftHandIndex2
									{
										OFFSET 7.536453 0.000000 0.000000
										CHANNELS 3 Xrotation Yrotation Zrotation
										JOINT LeftHandIndex3
										{
											OFFSET 7.512344 0.000000 0.000000
											CHANNELS 3 Xrotation Yrotation Zrotation
											JOINT LeftHandIndex4
											{
												OFFSET 10.212402 0.000000 0.000001
												CHANNELS 3 Xrotation Yrotation Zrotation
												End Site
												{
													OFFSET -5.180801 8.690506 1.388433
												}
											}
										}
									}
								}
							}
						}
					}
				}
				JOINT RightShoulder
				{
					OFFSET -17.399500 24.608795 1.168800
					CHANNELS 3 Xrotation Yrotation Zrotation
					JOINT RightArm
					{
						OFFSET -18.980635 5.765305 1.818600
						CHANNELS 3 Xrotation Yrotation Zrotation
						JOINT RightForeArm
						{
							OFFSET -49.290169 0.000000 0.000000
							CHANNELS 3 Xrotation Yrotation Zrotation
							JOINT RightHand
							{
								OFFSET -31.562012 0.000000 0.000000
								CHANNELS 3 Xrotation Yrotation Zrotation
								JOINT RightHandThumb1
								{
									OFFSET -6.133995 -4.388519 7.076070
									CHANNELS 3 Xrotation Yrotation Zrotation
									JOINT RightHandThumb2
									{
										OFFSET -6.037666 -3.485840 3.485847
										CHANNELS 3 Xrotation Yrotation Zrotation
										JOINT RightHandThumb3
										{
											OFFSET -6.496506 -3.750763 3.750761
											CHANNELS 3 Xrotation Yrotation Zrotation
											JOINT RightHandThumb4
											{
												OFFSET -5.616882 -3.242905 3.242910
												CHANNELS 3 Xrotation Yrotation Zrotation
												End Site
												{
													OFFSET 1.254608 7.132141 0.375429
												}
											}
										}
									}
								}
								JOINT RightHandIndex1
								{
									OFFSET -21.310577 -0.490082 6.209344
									CHANNELS 3 Xrotation Yrotation Zrotation
									JOINT RightHandIndex2
									{
										OFFSET -7.536453 0.000000 0.000000
										CHANNELS 3 Xrotation Yrotation Zrotation
										JOINT RightHandIndex3
										{
											OFFSET -7.512344 0.000000 0.000000
											CHANNELS 3 Xrotation Yrotation Zrotation
											JOINT RightHandIndex4
											{
												OFFSET -10.212402 0.000000 0.000001
												CHANNELS 3 Xrotation Yrotation Zrotation
												End Site
												{
													OFFSET 5.180801 8.690506 1.388433
												}
											}
										}
									}
								}
								JOINT RightHandMiddle1
								{
									OFFSET -23.373947 0.000000 0.000001
									CHANNELS 3 Xrotation Yrotation Zrotation
									JOINT RightHandMiddle2
									{
										OFFSET -6.996567 0.000000 0.000000
										CHANNELS 3 Xrotation Yrotation Zrotation
										JOINT RightHandMiddle3
										{
											OFFSET -7.015945 0.000000 0.000000
											CHANNELS 3 Xrotation Yrotation Zrotation
											JOINT RightHandMiddle4
											{
												OFFSET -7.721573 0.000000 0.000000
												CHANNELS 3 Xrotation Yrotation Zrotation
												End Site
												{
													OFFSET 4.651108 6.158463 0.251582
												}
											}
										}
									}
								}
								JOINT RightHandRing1
								{
									OFFSET -22.726120 -0.094986 -6.500475
									CHANNELS 3 Xrotation Yrotation Zrotation
									JOINT RightHandRing2
									{
										OFFSET -6.408615 0.000000 0.000000
										CHANNELS 3 Xrotation Yrotation Zrotation
										JOINT RightHandRing3
										{
											OFFSET -6.150223 0.000000 0.000000
											CHANNELS 3 Xrotation Yrotation Zrotation
											JOINT RightHandRing4
											{
												OFFSET -6.145386 0.000000 0.000000
												CHANNELS 3 Xrotation Yrotation Zrotation
												End Site
												{
													OFFSET 3.671402 4.923981 -0.202372
												}
											}
										}
									}
								}
								JOINT RightHandPinky1
								{
									OFFSET -18.920792 -0.453171 -11.426712
									CHANNELS 3 Xrotation Yrotation Zrotation
									JOINT RightHandPinky2
									{
										OFFSET -4.919586 0.000000 0.000000
										CHANNELS 3 Xrotation Yrotation Zrotation
										JOINT RightHandPinky3
										{
											OFFSET -5.233047 0.000000 0.000000
											CHANNELS 3 Xrotation Yrotation Zrotation
											JOINT RightHandPinky4
											{
												OFFSET -5.571716 0.000000 0.000000
												CHANNELS 3 Xrotation Yrotation Zrotation
												End Site
												{
													OFFSET 3.459808 4.342407 -0.466164
												}
											}
										}
									}
								}
							}
						}
					}
				}
			}
		}
	}
	JOINT LeftUpLeg
	{
		OFFSET 19.899099 -7.885101 -3.429500
		CHANNELS 3 Xrotation Yrotation Zrotation
		JOINT LeftLeg
		{
			OFFSET 1.745560 -36.997807 10.304700
			CHANNELS 3 Xrotation Yrotation Zrotation
			JOINT LeftFoot
			{
				OFFSET -1.745558 -29.803308 -13.615400
				CHANNELS 3 Xrotation Yrotation Zrotation
				JOINT LeftToeBase
				{
					OFFSET 1.181900 -18.539904 15.226099
					CHANNELS 3 Xrotation Yrotation Zrotation
					JOINT LeftToe_End
					{
						OFFSET -0.863701 1.402801 16.534700
						CHANNELS 3 Xrotation Yrotation Zrotation
						End Site
						{
							OFFSET 0.000000 16.616566 0.000000
						}
					}
				}
			}
		}
	}
	JOINT RightUpLeg
	{
		OFFSET -19.899099 -7.885101 -3.429500
		CHANNELS 3 Xrotation Yrotation Zrotation
		JOINT RightLeg
		{
			OFFSET -1.745560 -36.997807 10.304700
			CHANNELS 3 Xrotation Yrotation Zrotation
			JOINT RightFoot
			{
				OFFSET 1.745558 -29.803308 -13.615400
				CHANNELS 3 Xrotation Yrotation Zrotation
				JOINT RightToeBase
				{
					OFFSET -1.181900 -18.539904 15.226099
					CHANNELS 3 Xrotation Yrotation Zrotation
					JOINT RightToe_End
					{
						OFFSET 0.863701 1.402801 16.534700
						CHANNELS 3 Xrotation Yrotation Zrotation
						End Site
						{
							OFFSET 0.000000 16.616566 0.000000
						}
					}
				}
			}
		}
	}
}
MOTION
Frames: 4
Frame Time: 0.033333
-0.992816 93.337036 3.749670 1.281141 -2.282042 -0.687347 -0.255036 1.712691 -1.453305 0.168482 0.813842 -0.515436 0.163690 0.825921 -0.497538 -17.529740 -1.420294 2.840139 6.486847 0.316756 -2.141102 -0.000001 -0.000000 -0.000000 4.133811 -8.015226 4.825407 -63.828227 31.417357 -61.334846 -0.000009 -121.743477 -0.000030 59.058959 -18.715531 55.817491 48.436703 -55.243714 1.889371 16.609248 45.483159 -7.480894 9.384133 60.569359 22.734655 -0.000001 0.000001 0.000000 2.505555 7.898872 -84.418345 1.035494 3.327379 -34.564685 2.885305 5.045985 -59.500544 0.000000 0.000002 -0.000002 1.249727 7.902735 -86.093380 3.734863 5.456212 -68.762916 0.943614 3.190077 -32.948262 -0.000001 -0.000000 0.000005 2.193774 7.781314 -82.792466 4.867359 5.768055 -80.304733 0.714512 2.805670 -28.569906 0.000001 -0.000000 0.000004 -0.266263 3.547629 -82.078335 4.347673 5.655269 -75.086462 1.096850 3.414543 -35.607975 0.000000 0.000003 0.000002 2.900015 15.577047 2.157120 -71.860659 -33.431310 43.457331 -0.000017 131.537354 0.000043 53.592868 -1.151591 -29.864234 34.036875 46.601640 8.145955 15.845103 -44.633060 -11.113706 -19.175328 -63.330593 -55.315151 0.000003 0.000003 0.000003 1.509284 -2.130650 70.745815 3.679208 -4.553562 77.865222 0.897677 -2.750686 36.142134 -0.000000 -0.000002 0.000003 -3.944691 -5.265215 78.352986 3.017372 -4.359545 69.363009 0.966505 -2.842423 37.552691 0.000000 0.000001 -0.000001 -4.974600 -4.036112 71.982373 3.110227 -4.393252 70.579992 0.431526 -1.959614 24.835099 -0.000000 0.000001 -0.000005 -2.552363 -3.065053 56.530389 1.253190 -3.180266 43.005367 1.565987 -3.485055 48.382205 -0.000000 -0.000001 0.000000 -5.906343 12.364976 8.793512 15.285287 -0.155426 0.925808 -10.719210 1.525791 -3.556362 -0.052754 -0.000003 0.000003 0.000000 -0.000000 0.000000 -8.670993 -9.633998 -3.767272 16.104302 2.411587 -0.039753 -8.616059 0.085565 -2.659534 -1.948636 0.000004 0.000002 -0.000000 -0.000001 -0.000000 
-0.822837 93.299225 3.759460 1.017089 -2.309317 -0.652727 -0.216838 1.725327 -1.411412 0.180762 0.819915 -0.499382 0.175770 0.831539 -0.481774 -17.413965 -1.427686 2.858920 6.493758 0.353065 -2.037843 -0.000001 0.000000 0.000000 4.111606 -7.833568 4.506106 -62.731763 31.077986 -61.169364 -0.000006 -121.978668 -0.000050 59.067367 -18.135764 57.523402 48.436375 -55.243813 1.889004 16.609251 45.483176 -7.480929 9.384073 60.569359 22.734706 -0.000002 0.000004 0.000001 2.505597 7.898899 -84.418570 1.035499 3.327371 -34.564667 2.885308 5.045981 -59.500530 0.000002 -0.000000 -0.000004 1.249777 7.902776 -86.093599 3.734849 5.456172 -68.762895 0.943610 3.190080 -32.948262 -0.000000 0.000000 0.000003 2.193794 7.781349 -82.792691 4.867364 5.768062 -80.304754 0.714515 2.805680 -28.569908 0.000001 -0.000002 0.000002 -0.266241 3.547728 -82.078554 4.347671 5.655263 -75.086462 1.096844 3.414524 -35.607979 -0.000001 0.000003 0.000001 2.827546 15.683984 2.479776 -71.736985 -33.486761 43.050033 -0.000023 131.561587 0.000082 53.212962 -0.876941 -30.948523 34.036841 46.601640 8.145970 15.845107 -44.633066 -11.113702 -19.175319 -63.330627 -55.315127 -0.000000 0.000004 0.000002 1.509290 -2.130676 70.745829 3.679206 -4.553557 77.865181 0.897687 -2.750718 36.142134 0.000000 -0.000003 -0.000001 -3.944699 -5.265231 78.352959 3.017370 -4.359544 69.363003 0.966512 -2.842441 37.552687 0.000001 0.000001 -0.000006 -4.974635 -4.036117 71.982394 3.110230 -4.393277 70.579999 0.431522 -1.959593 24.835106 -0.000000 0.000001 -0.000003 -2.552386 -3.065067 56.530382 1.253186 -3.180269 43.005391 1.565973 -3.485031 48.382215 -0.000000 -0.000001 0.000004 -5.634409 12.454644 8.641370 15.456614 -0.192851 0.856458 -10.902541 1.506588 -3.366022 -0.062603 0.000005 0.000000 0.000000 0.000000 0.000001 -8.508169 -9.556979 -3.903614 16.324024 2.406432 -0.216676 -8.744965 0.041163 -2.405278 -1.967852 0.000003 -0.000003 -0.000000 -0.000001 -0.000000 
-0.659525 93.210594 3.708140 0.927238 -2.185682 -0.589649 -0.165044 1.684707 -1.384033 0.201113 0.802078 -0.487740 0.195935 0.813507 -0.470781 -17.408045 -1.423086 2.827387 6.325754 0.324824 -1.998476 -0.000001 0.000000 -0.000000 4.072023 -7.780298 4.126340 -61.776568 30.953307 -61.062055 0.000012 -122.324494 0.000005 59.110540 -17.783760 59.437139 48.435911 -55.243929 1.888451 16.609268 45.483172 -7.480923 9.384085 60.569373 22.734691 0.000002 -0.000000 -0.000002 2.505650 7.898912 -84.418891 1.035487 3.327364 -34.564667 2.885306 5.045993 -59.500537 -0.000001 0.000001 -0.000004 1.249806 7.902803 -86.093920 3.734857 5.456189 -68.762923 0.943609 3.190089 -32.948276 -0.000000 -0.000000 0.000005 2.193832 7.781372 -82.792999 4.867378 5.768085 -80.304768 0.714511 2.805682 -28.569899 -0.000000 -0.000001 0.000006 -0.266245 3.547896 -82.078868 4.347683 5.655272 -75.086455 1.096849 3.414520 -35.607975 0.000001 0.000001 0.000002 2.746090 15.823054 2.823695 -71.858132 -33.816045 42.705741 -0.000002 131.789552 0.000037 52.828515 -0.364013 -32.125757 34.036854 46.601640 8.145974 15.845107 -44.633070 -11.113689 -19.175329 -63.330600 -55.315161 0.000000 0.000002 -0.000000 1.509293 -2.130679 70.745836 3.679206 -4.553550 77.865202 0.897683 -2.750725 36.142137 -0.000000 -0.000002 0.000003 -3.944698 -5.265226 78.352980 3.017349 -4.359527 69.362996 0.966512 -2.842441 37.552698 0.000000 0.000001 0.000003 -4.974632 -4.036112 71.982394 3.110234 -4.393275 70.579992 0.431529 -1.959611 24.835102 -0.000000 0.000001 -0.000005 -2.552379 -3.065061 56.530358 1.253177 -3.180246 43.005391 1.565975 -3.485051 48.382215 0.000000 -0.000001 0.000004 -5.738929 12.470700 8.489897 15.784666 -0.321548 0.775205 -11.049824 1.468399 -3.130190 -0.069384 0.000003 0.000000 0.000000 0.000001 0.000001 -8.609086 -9.470518 -4.105899 16.707858 2.273912 -0.346598 -8.945749 -0.019211 -2.153279 -2.039655 -0.000005 -0.000001 0.000000 0.000001 -0.000001 
-0.506852 93.086609 3.616209 0.936668 -1.959251 -0.508356 -0.098345 1.598187 -1.357860 0.230681 0.763243 -0.475442 0.225420 0.774634 -0.459398 -17.485006 -1.399192 2.750686 6.091587 0.267207 -2.057799 0.000001 -0.000000 0.000000 4.009036 -7.847013 3.686632 -61.033696 31.064387 -61.041749 0.000002 -122.712982 -0.000003 59.223293 -17.719039 61.435564 48.436382 -55.243745 1.889012 16.609244 45.483152 -7.480895 9.384081 60.569366 22.734686 -0.000001 0.000001 0.000001 2.505590 7.898923 -84.418549 1.035499 3.327349 -34.564695 2.885296 5.045998 -59.500537 -0.000002 0.000001 0.000001 1.249757 7.902787 -86.093578 3.734855 5.456181 -68.762888 0.943606 3.190078 -32.948259 -0.000001 0.000000 0.000003 2.193809 7.781358 -82.792637 4.867374 5.768046 -80.304747 0.714503 2.805696 -28.569915 0.000000 -0.000001 0.000006 -0.266271 3.547770 -82.078520 4.347681 5.655271 -75.086442 1.096851 3.414541 -35.607969 -0.000000 0.000001 -0.000001 2.653376 16.003697 3.193225 -72.170641 -34.233253 42.398174 -0.000003 132.125283 0.000057 52.473475 0.274489 -33.387519 34.036854 46.601653 8.145947 15.845120 -44.633066 -11.113712 -19.175314 -63.330627 -55.315107 0.000001 0.000003 0.000002 1.509299 -2.130665 70.745815 3.679214 -4.553560 77.865202 0.897690 -2.750680 36.142134 -0.000000 0.000000 0.000001 -3.944681 -5.265227 78.352986 3.017356 -4.359518 69.362989 0.966510 -2.842429 37.552701 0.000002 0.000000 -0.000001 -4.974623 -4.036107 71.982380 3.110226 -4.393265 70.579992 0.431521 -1.959599 24.835095 -0.000001 -0.000000 -0.000003 -2.552370 -3.065057 56.530351 1.253171 -3.180246 43.005374 1.565985 -3.485064 48.382226 -0.000000 -0.000001 0.000004 -6.074381 12.407951 8.330947 16.222184 -0.479704 0.715131 -11.175406 1.422396 -2.893375 -0.075598 0.000005 0.000002 -0.000000 0.000001 0.000001 -8.867635 -9.389435 -4.354710 17.205709 2.067626 -0.426188 -9.199595 -0.087676 -1.920290 -2.148112 0.000001 0.000001 -0.000000 0.000001 -0.000000 
